<svg width="48" height="48" viewBox="0 0 48 48" fill="none" xmlns="http://www.w3.org/2000/svg">
<path d="M22.4086 40.8062L7.74468 26.1423C-0.438053 17.9596 11.545 6.88006 19.2922 14.6224L22.1338 17.5372C22.3213 17.8094 22.5722 18.032 22.8648 18.1858C23.1575 18.3396 23.4831 18.4199 23.8137 18.4199C24.1443 18.4199 24.47 18.3396 24.7626 18.1858C25.0553 18.032 25.3062 17.8094 25.4937 17.5372L28.8261 14.2492C28.9746 14.0501 29.1625 13.8837 29.3781 13.7604C29.5936 13.637 29.8323 13.5594 30.0792 13.5323C30.3261 13.5052 30.5759 13.5292 30.8131 13.6028C31.0503 13.6764 31.2699 13.7981 31.458 13.9603C31.6462 14.1224 31.7989 14.3215 31.9068 14.5453C32.0146 14.769 32.0753 15.0126 32.0849 15.2607C32.0946 15.5089 32.053 15.7564 31.9629 15.9879C31.8727 16.2193 31.7359 16.4297 31.5609 16.606L23.6289 24.5979C22.1806 26.0463 24.0921 27.7755 25.4637 26.4051L27.5169 24.4059C27.6702 24.2058 27.8639 24.0402 28.0855 23.92C28.307 23.7997 28.5515 23.7276 28.8028 23.7083C29.0541 23.6889 29.3067 23.7228 29.5441 23.8077C29.7815 23.8926 29.9983 24.0266 30.1803 24.2009C30.3624 24.3752 30.5057 24.586 30.6007 24.8195C30.6958 25.0529 30.7406 25.3038 30.7322 25.5558C30.7237 25.8077 30.6623 26.0551 30.5518 26.2816C30.4413 26.5082 30.2842 26.7089 30.0909 26.8707L23.9085 33.0962C22.3642 34.6406 24.0909 36.5378 25.6665 34.961L34.4037 26.4051C36.4964 24.3123 38.7788 27.0651 36.9932 28.8507L25.2105 40.811C24.8386 41.1827 24.3342 41.3915 23.8083 41.3915C23.2825 41.3915 22.7781 41.1827 22.4062 40.811L22.4086 40.8062ZM37.2536 23.6571C37.2536 23.2866 37.3635 22.9245 37.5693 22.6164C37.7751 22.3084 38.0677 22.0683 38.41 21.9265C38.7523 21.7847 39.1289 21.7477 39.4923 21.8199C39.8556 21.8922 40.1894 22.0706 40.4514 22.3326C40.7133 22.5946 40.8917 22.9283 40.964 23.2917C41.0363 23.655 40.9992 24.0317 40.8574 24.374C40.7156 24.7162 40.4755 25.0088 40.1675 25.2146C39.8595 25.4204 39.4973 25.5303 39.1268 25.5303C38.63 25.5303 38.1536 25.333 37.8023 24.9817C37.451 24.6304 37.2536 24.1539 37.2536 23.6571V23.6571ZM31.5765 20.4495C33.4845 18.5416 35.5052 16.4896 37.532 14.4616C39.5588 12.4336 42.0236 14.8948 40.1012 16.8172C38.1788 18.7396 34.0137 22.8411 34.0137 22.8411C33.8293 23.0405 33.6069 23.201 33.3596 23.3134C33.1123 23.4257 32.8451 23.4875 32.5737 23.4951C32.217 23.4984 31.8685 23.3881 31.5787 23.1801C31.2889 22.9721 31.0729 22.6773 30.9618 22.3383C30.8507 21.9994 30.8504 21.6339 30.9609 21.2947C31.0714 20.9556 31.287 20.6604 31.5765 20.4519V20.4495Z" fill="#1B41E9"/>
<path d="M23.928 20.6724C23.9612 20.6317 23.9991 20.5856 24.0413 20.5346C24.2147 20.3253 24.4617 20.0336 24.7574 19.7031C25.3105 19.0848 26.0461 18.3165 26.7946 17.6976C27.2574 15.4611 27.6098 12.8985 27.4465 10.7484C27.2763 8.50752 26.5706 6.93919 25.1173 6.42687C24.5434 6.22468 24.0526 6.29905 23.6035 6.57831C23.132 6.87148 22.6813 7.40872 22.2758 8.17167L23.928 20.6724ZM23.928 20.6724C23.9169 20.2686 23.9105 19.8592 23.909 19.4439M23.928 20.6724L22.2385 21.6913M24.5333 21.5143L24.5342 21.5134L24.5515 21.4948C24.5693 21.476 24.5998 21.4442 24.6472 21.3963C24.7421 21.3005 24.9035 21.1414 25.164 20.8946L25.1643 20.8943C25.3121 20.7541 25.6589 20.4933 26.0862 20.1907C26.1363 20.1552 26.187 20.1195 26.2382 20.0837C26.0705 20.7314 25.9109 21.2981 25.7777 21.7505C25.6707 22.1141 25.581 22.4035 25.5182 22.6014C25.4935 22.6793 25.4729 22.743 25.4571 22.7915C25.4568 22.7919 25.4564 22.7923 25.456 22.7927C25.3982 22.8516 25.3178 22.9365 25.2226 23.0451C25.0327 23.2619 24.7817 23.5759 24.534 23.9682C24.4222 24.1454 24.3097 24.3406 24.2035 24.5517C24.0694 23.4232 23.9815 22.2476 23.9388 21.019L24.5306 21.5118C24.5333 21.5143 24.5333 21.5143 24.5333 21.5143ZM24.5333 21.5143L24.5327 21.515L24.533 21.5147L24.5332 21.5144L24.5333 21.5143ZM22.2385 21.6913C22.1923 21.1204 22.1581 20.539 22.1366 19.949L22.1363 19.9399L22.1363 19.9307C22.137 14.5922 23.1948 9.83059 24.8539 7.06968L25.726 7.55805C25.0884 8.78325 24.6243 11.1008 24.325 13.4947C24.0288 15.8642 23.9044 18.2148 23.909 19.4439M22.2385 21.6913C22.2188 21.6628 22.1977 21.6325 22.1753 21.6006M22.2385 21.6913L22.2757 8.17187C22.1575 8.39455 22.0445 8.63706 21.9354 8.89513C20.6826 11.8616 20.2725 16.6312 20.831 19.9834M23.909 19.4439L23.4201 19.4457L23.909 19.4439ZM22.1753 21.6006C22.1754 21.6007 22.1754 21.6008 22.1755 21.6008L22.1421 21.6242M22.1753 21.6006C22.1753 21.6005 22.1752 21.6005 22.1752 21.6004L22.1418 21.6238M22.1753 21.6006C22.111 21.5087 22.0346 21.4031 21.9532 21.2927L21.953 21.2925C21.6653 20.9026 21.26 20.3913 20.831 19.9834M22.1421 21.6242C22.142 21.6241 22.1419 21.6239 22.1418 21.6238M22.1421 21.6242C22.1481 21.631 22.1539 21.6378 22.1597 21.6444M22.1421 21.6242L21.766 21.8877M22.1418 21.6238C22.113 21.5906 22.0818 21.5551 22.0469 21.5154L22.0469 21.5154L22.0432 21.5113C22.0153 21.4803 21.9836 21.4483 21.9583 21.4232L21.9572 21.4221C21.9335 21.3988 21.9073 21.3737 21.879 21.3474C21.8789 21.3473 21.8789 21.3473 21.8789 21.3473C21.554 21.0452 20.9491 20.5671 20.691 20.3645L20.4976 20.2127M22.1418 21.6238L20.4976 20.2127M20.831 19.9834C20.8403 20.0387 20.8497 20.0936 20.8595 20.1481L20.4976 20.2127M20.831 19.9834C20.7874 19.9419 20.7434 19.9014 20.6993 19.8622L20.433 20.162L20.4976 20.2127M21.766 21.8877C21.7487 21.8631 21.7305 21.8373 21.7114 21.8105C21.7113 21.8104 21.7112 21.8102 21.711 21.8101C21.6926 21.7842 21.6733 21.7574 21.6534 21.7299C21.6534 21.7299 21.6533 21.7298 21.6533 21.7297C21.6207 21.6847 21.5863 21.6377 21.5507 21.5894C21.3636 21.3359 21.1322 21.039 20.8827 20.7583C20.8825 20.7522 20.8823 20.7461 20.882 20.7399L20.8668 20.7405C20.783 20.6467 20.6972 20.5549 20.6104 20.4673C20.5299 20.386 20.4486 20.3083 20.3673 20.236L21.766 21.8877ZM21.766 21.8877C21.7808 21.9088 21.795 21.9291 21.8086 21.9487L22.1593 21.6439C22.1594 21.6441 22.1595 21.6443 22.1597 21.6444M22.1597 21.6444C22.1598 21.6446 22.1599 21.6447 22.1601 21.6449L21.8086 21.9488L22.1597 21.6444ZM23.9385 21.0105C23.993 21.0532 24.0645 21.1094 24.1586 21.1833L23.9385 21.0105C23.9385 21.0105 23.9385 21.0105 23.9385 21.0105ZM22.5008 24.0217C22.5972 24.6843 22.7103 25.3272 22.8387 25.9469C22.6287 25.6253 22.3951 25.2817 22.1606 24.9638C21.8581 24.5531 21.5228 24.142 21.2172 23.89C21.2148 23.8834 21.2122 23.8763 21.2095 23.8685C21.3523 23.9912 21.4615 24.0909 21.5111 24.1467C21.6395 24.292 21.7178 24.3841 21.7628 24.4383C21.7852 24.4653 21.799 24.4826 21.8064 24.492L21.8127 24.5L21.812 24.499L21.8114 24.4982L21.8111 24.4978L21.8109 24.4975L21.8108 24.4974C21.8108 24.4974 21.8108 24.4974 21.8135 24.4954L22.5008 24.0217ZM21.2299 23.9208C21.2329 23.9257 21.2343 23.9286 21.2342 23.9288C21.2342 23.929 21.2327 23.9266 21.2299 23.9208ZM22.4999 24.0161L22.2131 24.2005C22.3466 24.1146 22.4377 24.0561 22.4999 24.0161C22.4999 24.0161 22.4999 24.0161 22.4999 24.0161ZM22.2705 22.0644C22.3196 22.6054 22.3795 23.1365 22.4495 23.6561C22.3494 23.5112 22.2128 23.319 22.052 23.107C21.7539 22.714 21.3541 22.2279 20.9382 21.8533C20.9381 21.8524 20.9381 21.8515 20.938 21.8506C21.0661 21.9593 21.1785 22.0586 21.2538 22.133C21.2767 22.1557 21.2906 22.17 21.2984 22.1785C21.3393 22.2251 21.3732 22.2638 21.4036 22.299L21.4045 22.2999C21.4868 22.3947 21.538 22.4559 21.5676 22.4919C21.5823 22.5099 21.5915 22.5214 21.5963 22.5275L21.6 22.5323L21.5994 22.5315L21.5989 22.5309L21.5987 22.5305L21.5986 22.5304L21.5985 22.5303C21.5985 22.5303 21.5985 22.5302 21.6006 22.5287L22.2705 22.0644ZM22.2699 22.0575L21.9995 22.2316L22.2699 22.0574C22.2699 22.0574 22.2699 22.0574 22.2699 22.0575ZM21.4688 21.6498C21.3114 21.5084 21.1014 21.3338 20.8996 21.1701L21.1483 21.8862L21.4688 21.6498ZM24.5519 21.4921C24.5519 21.492 24.5519 21.4921 24.5519 21.4921L24.5519 21.4921Z" fill="#EE6C4D" stroke="#EE6C4D"/>
</svg>
