<svg width="135" height="111" viewBox="0 0 135 111" fill="none" xmlns="http://www.w3.org/2000/svg">
<path d="M66.2077 7.17682L58.8047 14.5196L100.755 56.1285H103.223L102.949 55.5846C102.949 55.5846 100.121 50.9355 98.2874 47.9699C95.8485 44.0258 94.6115 41.7288 91.9811 37.9076C88.7931 33.2764 83.2072 26.4856 83.2072 26.4856C83.2072 26.4856 80.0471 22.661 77.9977 20.2306C76.0833 17.9605 73.0623 14.4454 73.0623 14.4454L71.9656 13.1598L66.2077 7.17682Z" fill="url(#paint0_linear_229_731)"/>
<path d="M77.9977 20.2306C80.0471 22.661 83.2072 26.4856 83.2072 26.4856C83.2072 26.4856 88.7931 33.2764 91.9811 37.9076C94.6115 41.7288 95.8485 44.0258 98.2874 47.9699C100.121 50.9355 102.949 55.5846 102.949 55.5846L103.223 56.1285H103.497H107.336C107.336 56.1285 106.517 53.3058 105.965 51.5053C105.344 49.4809 105.054 48.325 104.319 46.3382C103.56 44.2825 102.974 43.1925 102.126 41.1711C101.37 39.3684 100.986 38.3409 100.207 36.5479C98.9931 33.755 96.9165 29.477 96.9165 29.477L93.3521 22.6782C93.3521 22.6782 91.1699 19.2034 89.7876 16.9672C89.3285 16.2244 88.6147 15.0635 88.6147 15.0635C88.6147 15.0635 87.5411 13.2086 86.7716 12.072C84.9909 9.44158 81.5621 5.81705 81.5621 5.81705L73.0623 14.4454C73.0623 14.4454 76.0833 17.9605 77.9977 20.2306Z" fill="url(#paint1_linear_229_731)"/>
<path d="M89.7876 16.9672C91.1699 19.2034 93.3521 22.6782 93.3521 22.6782L96.9165 29.477C96.9165 29.477 98.9931 33.755 100.207 36.5479C100.986 38.3409 101.37 39.3684 102.126 41.1711C102.974 43.1925 103.56 44.2825 104.319 46.3382C105.054 48.325 105.344 49.4809 105.965 51.5053C106.517 53.3058 107.336 56.1285 107.336 56.1285H110.9C110.9 56.1285 111.06 51.98 110.9 49.3297C110.706 46.1211 110.54 44.0805 110.077 40.8991C109.582 37.4946 109.042 35.7948 108.158 32.4685C107.494 29.9676 107.118 28.6484 106.239 26.2136C105.199 23.3348 103.497 18.8708 103.497 18.8708L103.362 18.5989L101.303 14.4454L99.3841 10.7122L97.1907 6.90486L88.6147 15.0635C88.6147 15.0635 89.3285 16.2244 89.7876 16.9672Z" fill="url(#paint2_linear_229_731)"/>
<path d="M110.9 49.3297C111.06 51.98 110.9 56.1285 110.9 56.1285H115.013C115.013 56.1285 116.338 49.8677 116.658 45.7943C116.974 41.7707 116.932 39.4958 116.932 35.46C116.932 33.4422 116.857 32.3039 116.658 30.2929C116.392 27.6169 115.561 23.4941 115.561 23.4941L115.468 23.0502C115.468 23.0502 114.838 19.3071 114.19 16.9672C113.5 14.4732 111.997 10.7122 111.997 10.7122L103.362 18.5989L103.497 18.8708C103.497 18.8708 105.199 23.3348 106.239 26.2136C107.118 28.6484 107.494 29.9676 108.158 32.4685C109.042 35.7948 109.582 37.4946 110.077 40.8991C110.54 44.0805 110.706 46.1211 110.9 49.3297Z" fill="url(#paint3_linear_229_731)"/>
<path d="M116.658 45.7943C116.338 49.8677 115.013 56.1285 115.013 56.1285H119.4C119.4 56.1285 121.225 52.8834 122.142 50.6895C123.217 48.1141 123.697 46.6056 124.335 43.8906C125.022 40.9651 125.166 39.2682 125.432 36.2759C125.677 33.5232 125.71 31.9685 125.706 29.2051C125.702 26.5479 125.765 25.0428 125.432 22.4062C125.063 19.4916 123.787 15.0635 123.787 15.0635H123.625L115.561 22.9502L115.468 23.0502L115.561 23.4941C115.561 23.4941 116.392 27.6169 116.658 30.2929C116.857 32.3039 116.932 33.4422 116.932 35.46C116.932 39.4958 116.974 41.7707 116.658 45.7943Z" fill="url(#paint4_linear_229_731)"/>
<path d="M28.5655 20.4196V28.7157H20.5371C20.5371 28.7157 18.8857 29.398 18.3962 30.3214C17.8577 31.3371 17.8739 32.241 18.3962 33.2651C18.8339 34.1235 20.2695 34.8708 20.2695 34.8708H28.0303H28.5655V43.1669C28.5655 43.1669 29.3128 44.6024 30.1712 45.0402C31.1953 45.5624 32.0908 45.5624 33.115 45.0402C33.9733 44.6024 34.7206 43.1669 34.7206 43.1669V34.8708H42.7491C42.7491 34.8708 44.356 34.3616 44.89 33.5327C45.5692 32.4785 45.4816 31.4272 44.89 30.3214C44.4354 29.4718 42.749 28.7157 42.749 28.7157L34.7206 28.7157V20.4196C34.7206 20.4196 33.8024 18.9443 32.8473 18.5463C31.8826 18.1444 31.3799 18.092 30.4388 18.5463C29.571 18.9652 28.5655 20.4196 28.5655 20.4196Z" fill="#5653CF"/>
<path fill-rule="evenodd" clip-rule="evenodd" d="M72.7219 27.9128C83.9589 38.8296 101.089 56.28 101.089 56.28H118.484L119.019 55.7447C119.019 55.7447 120.616 53.3688 121.428 51.7305C122.324 49.9218 122.704 48.8416 123.301 46.9135C124.028 44.5636 124.268 43.1901 124.639 40.7583C124.971 38.5789 125.057 37.3399 125.174 35.1384C125.298 32.8163 125.26 31.3302 125.208 29.3003C125.197 28.867 125.185 28.409 125.174 27.9128C125.119 25.403 125.054 24.0178 124.639 21.4901C124.274 19.2638 123.301 15.8702 123.301 15.8702L115.564 22.7925C115.564 22.7925 114.818 19.6521 114.251 17.6288C113.507 14.9721 111.794 11.0531 111.794 11.0531L103.399 18.329L97.3424 7.03891L88.6953 14.8282L82.5689 6.68882C82.5689 6.68882 85.8027 4.48029 87.7083 3.55992C90.6522 2.13804 92.5976 1.8767 95.7785 1.44936L96.0043 1.41901C99.7331 0.917427 101.926 0.806004 105.638 1.41901C109.225 2.01133 111.192 2.79118 114.47 4.36277C117.477 5.80428 119.117 6.79791 121.695 8.91221C124.555 11.257 128.118 15.8702 128.118 15.8702C128.118 15.8702 130.568 19.9697 131.597 22.8282C132.473 25.2608 132.842 26.6908 133.203 29.2509C133.684 32.6659 133.596 34.6558 133.203 38.0822C133.185 38.2351 133.168 38.3835 133.152 38.5281C132.93 40.4821 132.788 41.7279 132.132 43.7021C131.059 46.9329 129.801 48.5721 127.779 51.2076C127.714 51.2916 127.649 51.3767 127.583 51.4629C126.373 53.0412 125.349 54.0256 124.195 55.1344C123.591 55.7153 122.951 56.3303 122.231 57.0828C102.295 77.8975 69.7781 109 69.7781 109C69.7781 109 36.1441 80.2135 15.9876 60.2942C15.0713 59.3886 14.2576 58.645 13.4902 57.9436C11.9686 56.553 10.6286 55.3284 9.02967 53.3362C7.66847 51.6402 6.97594 50.6277 5.81829 48.7868C5.64073 48.5044 5.47244 48.2397 5.3119 47.9872C4.3244 46.4339 3.63026 45.3421 2.87454 43.4345C1.88492 40.9364 1.51098 39.4201 1.26885 36.7441C1.24559 36.487 1.22313 36.2471 1.20178 36.0191C1.08484 34.7699 1.00119 33.8763 1.00119 32.4623C1.00119 32.2612 1.00087 32.0685 1.00056 31.8825C0.997671 30.1343 0.995758 28.9793 1.26885 27.11C1.70384 24.1325 2.16227 22.6227 3.40972 19.8844C4.55163 17.3777 5.65867 15.8685 7.25193 13.6963C7.30866 13.6189 7.366 13.5407 7.42398 13.4617C9.56533 10.5406 14.1143 7.03891 14.1143 7.03891C14.1143 7.03891 17.5708 4.8019 20.0018 3.82759C22.8016 2.70547 24.5037 2.07422 27.495 1.68668C30.8116 1.257 32.7523 1.18422 36.0587 1.68668C38.7411 2.09432 40.2263 2.56118 42.749 3.55998C45.2699 4.55803 46.8298 5.40538 49.1718 6.77135C51.6507 8.21719 52.992 9.11715 55.3269 10.7856C60.2678 14.3161 63.1965 17.6012 66.4385 21.2378C68.2873 23.3116 70.238 25.4997 72.7219 27.9128ZM33.9178 9.44744C32.1493 9.27731 31.1354 9.26314 29.3684 9.44744C27.7783 9.61328 26.8968 9.83084 25.3541 10.2503C24.0785 10.5971 23.3354 10.7504 22.1428 11.3207C20.783 11.9711 20.1623 12.5918 18.9314 13.4617C17.6512 14.3664 16.8713 14.8062 15.72 15.8702C14.6875 16.8245 14.1739 17.4359 13.3115 18.5463C12.102 20.1037 11.4859 21.0492 10.6354 22.8282C9.59459 25.005 9.06694 26.3222 8.76205 28.7157C8.37703 31.7382 8.29113 33.5989 9.02843 36.5927C9.57996 38.8322 10.3477 40.0561 11.4382 42.0964C12.4235 43.9398 13.2661 44.8114 14.6496 46.3782C15.7257 47.5969 16.3436 48.2821 17.5933 49.322C19.0416 50.5271 19.9261 51.1481 21.6075 51.9981C24.5033 53.4622 26.402 53.874 29.636 54.139C32.456 54.3702 34.1141 54.2803 36.8616 53.6038C39.2737 53.0099 40.5799 52.4059 42.7491 51.1953C44.6481 50.1355 45.7167 49.4763 47.2985 47.9839C49.3664 46.0329 50.2582 44.6132 51.5804 42.0964C52.6726 40.0173 53.2656 38.7804 53.7213 36.4765C54.107 34.5258 54.0644 33.3788 53.9889 31.3918C53.8884 28.7478 53.8282 27.1861 52.9184 24.7015C52.1785 22.6807 51.4219 21.6843 50.2423 19.8844C48.936 17.8911 48.2143 16.7184 46.4957 15.0673C44.6558 13.2997 43.4472 12.4172 41.1434 11.3207C38.5112 10.068 36.8195 9.72658 33.9178 9.44744ZM28.5655 20.4196V28.7157H20.5371C20.5371 28.7157 18.8857 29.398 18.3962 30.3214C17.8577 31.3371 17.8739 32.241 18.3962 33.2651C18.8339 34.1235 20.2695 34.8708 20.2695 34.8708H28.0303H28.5655V43.1669C28.5655 43.1669 29.3128 44.6024 30.1712 45.0402C31.1953 45.5624 32.0908 45.5624 33.115 45.0402C33.9733 44.6024 34.7206 43.1669 34.7206 43.1669V34.8708H42.7491C42.7491 34.8708 44.356 34.3616 44.89 33.5327C45.5692 32.4785 45.4816 31.4272 44.89 30.3214C44.4354 29.4718 42.749 28.7157 42.749 28.7157L34.7206 28.7157V20.4196C34.7206 20.4196 33.8024 18.9443 32.8473 18.5463C31.8826 18.1444 31.3799 18.092 30.4388 18.5463C29.571 18.9652 28.5655 20.4196 28.5655 20.4196Z" fill="#5653CF"/>
<path fill-rule="evenodd" clip-rule="evenodd" d="M29.3684 9.44744C31.1354 9.26314 32.1493 9.27731 33.9178 9.44744C36.8195 9.72658 38.5112 10.068 41.1434 11.3207C43.4472 12.4172 44.6558 13.2997 46.4957 15.0673C48.2143 16.7184 48.936 17.8911 50.2423 19.8844C51.4219 21.6843 52.1785 22.6807 52.9184 24.7015C53.8282 27.1861 53.8884 28.7478 53.9889 31.3918C54.0644 33.3788 54.107 34.5258 53.7213 36.4765C53.2656 38.7804 52.6726 40.0173 51.5804 42.0964C50.2582 44.6132 49.3664 46.0329 47.2985 47.9839C45.7167 49.4763 44.6481 50.1355 42.7491 51.1953C40.5799 52.4059 39.2737 53.0099 36.8616 53.6038C34.1141 54.2803 32.456 54.3702 29.636 54.139C26.402 53.874 24.5033 53.4622 21.6075 51.9981C19.9261 51.1481 19.0416 50.5271 17.5933 49.322C16.3436 48.2821 15.7257 47.5969 14.6496 46.3782C13.2661 44.8114 12.4235 43.9398 11.4382 42.0964C10.3477 40.0561 9.57996 38.8322 9.02843 36.5927C8.29113 33.5989 8.37703 31.7382 8.76205 28.7157C9.06694 26.3222 9.59459 25.005 10.6354 22.8282C11.4859 21.0492 12.102 20.1037 13.3115 18.5463C14.1739 17.4359 14.6875 16.8245 15.72 15.8702C16.8713 14.8062 17.6512 14.3664 18.9314 13.4617C20.1623 12.5918 20.783 11.9711 22.1428 11.3207C23.3354 10.7504 24.0785 10.5971 25.3541 10.2503C26.8968 9.83084 27.7783 9.61328 29.3684 9.44744ZM28.5655 28.7157V20.4196C28.5655 20.4196 29.571 18.9652 30.4388 18.5463C31.3799 18.092 31.8826 18.1444 32.8473 18.5463C33.8024 18.9443 34.7206 20.4196 34.7206 20.4196V28.7157L42.749 28.7157C42.749 28.7157 44.4354 29.4718 44.89 30.3214C45.4816 31.4272 45.5692 32.4785 44.89 33.5327C44.356 34.3616 42.7491 34.8708 42.7491 34.8708H34.7206V43.1669C34.7206 43.1669 33.9733 44.6024 33.115 45.0402C32.0908 45.5624 31.1953 45.5624 30.1712 45.0402C29.3128 44.6024 28.5655 43.1669 28.5655 43.1669V34.8708H28.0303H20.2695C20.2695 34.8708 18.8339 34.1235 18.3962 33.2651C17.8739 32.241 17.8577 31.3371 18.3962 30.3214C18.8857 29.398 20.5371 28.7157 20.5371 28.7157H28.5655Z" fill="white"/>
<path d="M96.0043 1.41901C99.7331 0.917427 101.926 0.806004 105.638 1.41901C109.225 2.01133 111.192 2.79118 114.47 4.36277C117.477 5.80428 119.117 6.79791 121.695 8.91221C124.555 11.257 128.118 15.8702 128.118 15.8702C128.118 15.8702 130.568 19.9697 131.597 22.8282C132.473 25.2608 132.842 26.6908 133.203 29.2509C133.684 32.6659 133.596 34.6558 133.203 38.0822C133.185 38.2351 133.168 38.3835 133.152 38.5281C132.93 40.4821 132.788 41.7279 132.132 43.7021C131.059 46.9329 129.801 48.5721 127.779 51.2076C127.714 51.2916 127.649 51.3767 127.583 51.4629C126.373 53.0412 125.349 54.0256 124.195 55.1344C123.591 55.7153 122.951 56.3303 122.231 57.0828C102.295 77.8975 69.7781 109 69.7781 109C69.7781 109 36.1441 80.2135 15.9876 60.2942C15.0713 59.3886 14.2576 58.645 13.4902 57.9436C11.9686 56.553 10.6286 55.3284 9.02967 53.3362C7.66847 51.6402 6.97594 50.6277 5.81829 48.7868C5.64073 48.5044 5.47244 48.2397 5.3119 47.9872C4.3244 46.4339 3.63026 45.3421 2.87454 43.4345C1.88492 40.9364 1.51098 39.4201 1.26885 36.7441C1.24559 36.487 1.22313 36.2471 1.20178 36.0191C1.08484 34.7699 1.00119 33.8763 1.00119 32.4623C1.00119 32.2612 1.00087 32.0685 1.00056 31.8825C0.997671 30.1343 0.995758 28.9793 1.26885 27.11C1.70384 24.1325 2.16227 22.6227 3.40972 19.8844C4.55163 17.3777 5.65867 15.8685 7.25193 13.6963C7.30866 13.6189 7.366 13.5407 7.42398 13.4617C9.56533 10.5406 14.1143 7.03891 14.1143 7.03891C14.1143 7.03891 17.5708 4.8019 20.0018 3.82759C22.8016 2.70547 24.5037 2.07422 27.495 1.68668C30.8116 1.257 32.7523 1.18422 36.0587 1.68668C38.7411 2.09432 40.2263 2.56118 42.749 3.55998C45.2699 4.55803 46.8298 5.40538 49.1718 6.77135C51.6507 8.21719 52.992 9.11715 55.3269 10.7856C60.2678 14.3161 63.1965 17.6012 66.4385 21.2378C68.2873 23.3116 70.238 25.4997 72.7219 27.9128C83.9589 38.8296 101.089 56.28 101.089 56.28H118.484L119.019 55.7447C119.019 55.7447 120.616 53.3688 121.428 51.7305C122.324 49.9218 122.704 48.8416 123.301 46.9135C124.028 44.5636 124.268 43.1901 124.639 40.7583C124.971 38.5789 125.057 37.3399 125.174 35.1384C125.298 32.8163 125.26 31.3302 125.208 29.3003C125.197 28.867 125.185 28.409 125.174 27.9128C125.119 25.403 125.054 24.0178 124.639 21.4901C124.274 19.2638 123.301 15.8702 123.301 15.8702L115.564 22.7925C115.564 22.7925 114.818 19.6521 114.251 17.6288C113.507 14.9721 111.794 11.0531 111.794 11.0531L103.399 18.329L97.3424 7.03891L88.6953 14.8282L82.5689 6.68882C82.5689 6.68882 85.8027 4.48029 87.7083 3.55992C90.6522 2.13804 92.5976 1.8767 95.7785 1.44936M96.0043 1.41901L95.7785 1.44936M96.0043 1.41901C95.9284 1.42923 95.8531 1.43934 95.7785 1.44936M29.3684 9.44744C31.1354 9.26314 32.1493 9.27731 33.9178 9.44744C36.8195 9.72658 38.5112 10.068 41.1434 11.3207C43.4472 12.4172 44.6558 13.2997 46.4957 15.0673C48.2143 16.7184 48.936 17.8911 50.2423 19.8844C51.4219 21.6843 52.1785 22.6807 52.9184 24.7015C53.8282 27.1861 53.8884 28.7478 53.9889 31.3918C54.0644 33.3788 54.107 34.5258 53.7213 36.4765C53.2656 38.7804 52.6726 40.0173 51.5804 42.0964C50.2582 44.6132 49.3664 46.0329 47.2985 47.9839C45.7167 49.4763 44.6481 50.1355 42.7491 51.1953C40.5799 52.4059 39.2737 53.0099 36.8616 53.6038C34.1141 54.2803 32.456 54.3702 29.636 54.139C26.402 53.874 24.5033 53.4622 21.6075 51.9981C19.9261 51.1481 19.0416 50.5271 17.5933 49.322C16.3436 48.2821 15.7257 47.5969 14.6496 46.3782C13.2661 44.8114 12.4235 43.9398 11.4382 42.0964C10.3477 40.0561 9.57996 38.8322 9.02843 36.5927C8.29113 33.5989 8.37703 31.7382 8.76205 28.7157C9.06694 26.3222 9.59459 25.005 10.6354 22.8282C11.4859 21.0492 12.102 20.1037 13.3115 18.5463C14.1739 17.4359 14.6875 16.8245 15.72 15.8702C16.8713 14.8062 17.6512 14.3664 18.9314 13.4617C20.1623 12.5918 20.783 11.9711 22.1428 11.3207C23.3354 10.7504 24.0785 10.5971 25.3541 10.2503C26.8968 9.83084 27.7783 9.61328 29.3684 9.44744ZM28.5655 20.4196V28.7157H20.5371C20.5371 28.7157 18.8857 29.398 18.3962 30.3214C17.8577 31.3371 17.8739 32.241 18.3962 33.2651C18.8339 34.1235 20.2695 34.8708 20.2695 34.8708H28.0303H28.5655V43.1669C28.5655 43.1669 29.3128 44.6024 30.1712 45.0402C31.1953 45.5624 32.0908 45.5624 33.115 45.0402C33.9733 44.6024 34.7206 43.1669 34.7206 43.1669V34.8708H42.7491C42.7491 34.8708 44.356 34.3616 44.89 33.5327C45.5692 32.4785 45.4816 31.4272 44.89 30.3214C44.4354 29.4718 42.749 28.7157 42.749 28.7157L34.7206 28.7157V20.4196C34.7206 20.4196 33.8024 18.9443 32.8473 18.5463C31.8826 18.1444 31.3799 18.092 30.4388 18.5463C29.571 18.9652 28.5655 20.4196 28.5655 20.4196Z" stroke="#5653CF" stroke-width="2"/>
<g filter="url(#filter0_dd_229_731)">
<line x1="101.992" y1="56.466" x2="67.7374" y2="93.932" stroke="black" stroke-opacity="0.1" shape-rendering="crispEdges"/>
</g>
<defs>
<filter id="filter0_dd_229_731" x="61.3684" y="52.1286" width="52.9927" height="56.1408" filterUnits="userSpaceOnUse" color-interpolation-filters="sRGB">
<feFlood flood-opacity="0" result="BackgroundImageFix"/>
<feColorMatrix in="SourceAlpha" type="matrix" values="0 0 0 0 0 0 0 0 0 0 0 0 0 0 0 0 0 0 127 0" result="hardAlpha"/>
<feOffset dx="3" dy="5"/>
<feGaussianBlur stdDeviation="4.5"/>
<feComposite in2="hardAlpha" operator="out"/>
<feColorMatrix type="matrix" values="0 0 0 0 0 0 0 0 0 0 0 0 0 0 0 0 0 0 1 0"/>
<feBlend mode="normal" in2="BackgroundImageFix" result="effect1_dropShadow_229_731"/>
<feColorMatrix in="SourceAlpha" type="matrix" values="0 0 0 0 0 0 0 0 0 0 0 0 0 0 0 0 0 0 127 0" result="hardAlpha"/>
<feOffset dy="4"/>
<feGaussianBlur stdDeviation="2"/>
<feComposite in2="hardAlpha" operator="out"/>
<feColorMatrix type="matrix" values="0 0 0 0 0 0 0 0 0 0 0 0 0 0 0 0 0 0 0.25 0"/>
<feBlend mode="normal" in2="effect1_dropShadow_229_731" result="effect2_dropShadow_229_731"/>
<feBlend mode="normal" in="SourceGraphic" in2="effect2_dropShadow_229_731" result="shape"/>
</filter>
<linearGradient id="paint0_linear_229_731" x1="87.1199" y1="26.2058" x2="77.4906" y2="31.4565" gradientUnits="userSpaceOnUse">
<stop stop-color="white"/>
<stop offset="0.976301" stop-color="#CCCCCC"/>
</linearGradient>
<linearGradient id="paint1_linear_229_731" x1="98.1474" y1="26.906" x2="87.6423" y2="32.8241" gradientUnits="userSpaceOnUse">
<stop stop-color="white"/>
<stop offset="1" stop-color="#BBBBBB"/>
</linearGradient>
<linearGradient id="paint2_linear_229_731" x1="106.515" y1="30.8368" x2="99.9557" y2="34.1433" gradientUnits="userSpaceOnUse">
<stop stop-color="#EFEFEF"/>
<stop offset="1" stop-color="#BBBBBB"/>
</linearGradient>
<linearGradient id="paint3_linear_229_731" x1="117.208" y1="32.7405" x2="108.712" y2="34.1222" gradientUnits="userSpaceOnUse">
<stop stop-color="white"/>
<stop offset="1" stop-color="#A5A5A5"/>
</linearGradient>
<linearGradient id="paint4_linear_229_731" x1="130.37" y1="28.9331" x2="67.857" y2="32.8033" gradientUnits="userSpaceOnUse">
<stop stop-color="#FEFEFE"/>
<stop offset="1"/>
</linearGradient>
</defs>
</svg>
