<svg width="35" height="35" viewBox="0 0 35 35" fill="none" xmlns="http://www.w3.org/2000/svg">
<path d="M30.625 18.6521C30.3956 21.1345 29.4639 23.5002 27.9391 25.4724C26.4142 27.4446 24.3592 28.9418 22.0145 29.7887C19.6699 30.6356 17.1325 30.7973 14.6993 30.2547C12.266 29.7122 10.0377 28.4879 8.27489 26.7251C6.5121 24.9623 5.28781 22.7339 4.74526 20.3007C4.20271 17.8675 4.36436 15.3301 5.21127 12.9854C6.05819 10.6407 7.55536 8.58574 9.52758 7.06089C11.4998 5.53604 13.8655 4.6044 16.3479 4.375C14.8945 6.34122 14.1952 8.76378 14.377 11.2021C14.5588 13.6403 15.6098 15.9324 17.3387 17.6613C19.0676 19.3902 21.3596 20.4411 23.7979 20.623C26.2362 20.8048 28.6588 20.1054 30.625 18.6521V18.6521Z" fill="#293241" stroke="#293241" stroke-width="2" stroke-linecap="round" stroke-linejoin="round"/>
</svg>
