<svg width="42" height="30" viewBox="0 0 42 30" fill="none" xmlns="http://www.w3.org/2000/svg">
<g filter="url(#filter0_dd_243_12409)">
<g clip-path="url(#clip0_243_12409)">
<mask id="mask0_243_12409" style="mask-type:luminance" maskUnits="userSpaceOnUse" x="3" y="2" width="36" height="24">
<rect x="3" y="2" width="36" height="24" fill="white"/>
</mask>
<g mask="url(#mask0_243_12409)">
<path fill-rule="evenodd" clip-rule="evenodd" d="M3 2V26H39V2H3Z" fill="#29C470"/>
<mask id="mask1_243_12409" style="mask-type:luminance" maskUnits="userSpaceOnUse" x="3" y="2" width="36" height="24">
<path fill-rule="evenodd" clip-rule="evenodd" d="M3 2V26H39V2H3Z" fill="white"/>
</mask>
<g mask="url(#mask1_243_12409)">
<rect x="5.25" y="1.67706" width="11.25" height="26.3229" fill="#C51918"/>
<mask id="mask2_243_12409" style="mask-type:luminance" maskUnits="userSpaceOnUse" x="5" y="1" width="12" height="27">
<rect x="5.25" y="1.67706" width="11.25" height="26.3229" fill="white"/>
</mask>
<g mask="url(#mask2_243_12409)">
<path fill-rule="evenodd" clip-rule="evenodd" d="M5.91977 2.9056L5.30542 3.60731L5.25 3.5586L5.84605 2.87779V2.74112L5.84829 2.72843L5.9176 2.53874L5.87518 2.47267L5.52367 2.78508L6.20124 1.84707V2.1676L6.33128 2.27192L6.64186 1.78906L6.33023 1.32435L6.10532 1.47798L6.19653 1.64085L6.13381 1.67956L5.6261 0.92454L5.94956 1.12114L6.00654 1.0477L5.69658 0.767046L5.83368 0.632836L5.38065 0.0451196L5.439 -3.05176e-05L5.93214 0.639723L5.80422 0.764947L6.10676 1.03888L5.96746 1.21842L5.8747 1.16203L6.05168 1.42523L6.35003 1.22142L6.73012 1.78822L6.34898 2.38076L6.12752 2.20308V2.07512L5.90521 2.38288L5.99942 2.52966L5.91977 2.74767V2.9056ZM5.30542 8.63021L5.91977 7.92849V7.77057L5.99942 7.55256L5.90521 7.40578L6.12752 7.09801V7.22597L6.34898 7.40365L6.73012 6.81111L6.35003 6.24431L6.05168 6.44812L5.8747 6.18493L5.96746 6.24131L6.10676 6.06177L5.80422 5.78784L5.93214 5.66262L5.439 5.02286L5.38065 5.06801L5.83368 5.65573L5.69658 5.78994L6.00654 6.07059L5.94956 6.14403L5.6261 5.94743L6.13381 6.70245L6.19653 6.66374L6.10532 6.50088L6.33023 6.34724L6.64186 6.81196L6.33128 7.29482L6.20124 7.19049V6.86997L5.52367 7.80798L5.87518 7.49556L5.9176 7.56164L5.84829 7.75132L5.84605 7.76402V7.90068L5.25 8.5815L5.30542 8.63021ZM5.91977 12.5082L5.30542 13.2099L5.25 13.1612L5.84605 12.4804V12.3437L5.84829 12.331L5.9176 12.1413L5.87518 12.0753L5.52367 12.3877L6.20124 11.4497V11.7702L6.33128 11.8745L6.64186 11.3917L6.33023 10.9269L6.10532 11.0806L6.19653 11.2434L6.13381 11.2822L5.6261 10.5271L5.94956 10.7237L6.00654 10.6503L5.69658 10.3696L5.83368 10.2354L5.38065 9.64771L5.439 9.60256L5.93214 10.2423L5.80422 10.3675L6.10676 10.6415L5.96746 10.821L5.8747 10.7646L6.05168 11.0278L6.35003 10.824L6.73012 11.3908L6.34898 11.9834L6.12752 11.8057V11.6777L5.90521 11.9855L5.99942 12.1323L5.91977 12.3503V12.5082ZM5.30542 17.8635L5.91977 17.1618V17.0038L5.99942 16.7858L5.90521 16.639L6.12752 16.3313V16.4592L6.34898 16.6369L6.73012 16.0444L6.35003 15.4776L6.05168 15.6814L5.8747 15.4182L5.96746 15.4746L6.10676 15.295L5.80422 15.0211L5.93214 14.8959L5.439 14.2561L5.38065 14.3013L5.83368 14.889L5.69658 15.0232L6.00654 15.3039L5.94956 15.3773L5.6261 15.1807L6.13381 15.9357L6.19653 15.897L6.10532 15.7341L6.33023 15.5805L6.64186 16.0452L6.33128 16.5281L6.20124 16.4237V16.1032L5.52367 17.0412L5.87518 16.7288L5.9176 16.7949L5.84829 16.9846L5.84605 16.9973V17.1339L5.25 17.8148L5.30542 17.8635ZM5.30542 22L5.91977 21.2983V21.1403L5.99942 20.9223L5.90521 20.7755L6.12752 20.4678V20.5957L6.34898 20.7734L6.73012 20.1809L6.35003 19.6141L6.05168 19.8179L5.8747 19.5547L5.96746 19.6111L6.10676 19.4315L5.80422 19.1576L5.93214 19.0324L5.439 18.3926L5.38065 18.4378L5.83368 19.0255L5.69658 19.1597L6.00654 19.4404L5.94956 19.5138L5.6261 19.3172L6.13381 20.0722L6.19653 20.0335L6.10532 19.8706L6.33023 19.717L6.64186 20.1817L6.33128 20.6646L6.20124 20.5603V20.2397L5.52367 21.1777L5.87518 20.8653L5.9176 20.9314L5.84829 21.1211L5.84605 21.1338V21.2704L5.25 21.9513L5.30542 22ZM16.4446 22L15.8302 21.2982V21.1403L15.7506 20.9223L15.8448 20.7755L15.6225 20.4678V20.5957L15.401 20.7734L15.0199 20.1809L15.4 19.6141L15.6983 19.8179L15.8753 19.5547L15.7825 19.6111L15.6432 19.4315L15.9458 19.1576L15.8179 19.0324L16.311 18.3926L16.3694 18.4378L15.9163 19.0255L16.0534 19.1597L15.7435 19.4403L15.8004 19.5138L16.1239 19.3172L15.6162 20.0722L15.5535 20.0335L15.6447 19.8706L15.4198 19.717L15.1081 20.1817L15.4187 20.6646L15.5488 20.5602V20.2397L16.2263 21.1777L15.8748 20.8653L15.8324 20.9314L15.9017 21.1211L15.904 21.1338V21.2704L16.5 21.9512L16.4446 22ZM15.8302 17.1618L16.4446 17.8635L16.5 17.8148L15.904 17.134V16.9973L15.9017 16.9846L15.8324 16.7949L15.8748 16.7288L16.2263 17.0412L15.5488 16.1032V16.4238L15.4187 16.5281L15.1081 16.0452L15.4198 15.5805L15.6447 15.7341L15.5535 15.897L15.6162 15.9357L16.1239 15.1807L15.8004 15.3773L15.7435 15.3039L16.0534 15.0232L15.9163 14.889L16.3694 14.3013L16.311 14.2561L15.8179 14.8959L15.9458 15.0211L15.6432 15.295L15.7825 15.4746L15.8753 15.4182L15.6983 15.6814L15.4 15.4776L15.0199 16.0444L15.401 16.6369L15.6225 16.4592V16.3313L15.8448 16.639L15.7506 16.7858L15.8302 17.0038V17.1618ZM16.4446 13.2099L15.8302 12.5082V12.3503L15.7506 12.1323L15.8448 11.9855L15.6225 11.6777V11.8057L15.401 11.9834L15.0199 11.3908L15.4 10.824L15.6983 11.0278L15.8753 10.7646L15.7825 10.821L15.6432 10.6415L15.9458 10.3675L15.8179 10.2423L16.311 9.60257L16.3694 9.64772L15.9163 10.2354L16.0534 10.3696L15.7435 10.6503L15.8004 10.7237L16.1239 10.5271L15.6162 11.2822L15.5535 11.2435L15.6447 11.0806L15.4198 10.9269L15.1081 11.3917L15.4187 11.8745L15.5488 11.7702V11.4497L16.2263 12.3877L15.8748 12.0753L15.8324 12.1413L15.9017 12.331L15.904 12.3437V12.4804L16.5 13.1612L16.4446 13.2099ZM15.8302 7.92848L16.4446 8.6302L16.5 8.58149L15.904 7.90068V7.76401L15.9017 7.75132L15.8324 7.56163L15.8748 7.49556L16.2263 7.80797L15.5488 6.86996V7.19048L15.4187 7.29481L15.1081 6.81195L15.4198 6.34723L15.6447 6.50087L15.5535 6.66374L15.6162 6.70245L16.1239 5.94743L15.8004 6.14403L15.7435 6.07058L16.0534 5.78993L15.9163 5.65572L16.3694 5.06801L16.311 5.02286L15.8179 5.66261L15.9458 5.78784L15.6432 6.06177L15.7825 6.2413L15.8753 6.18492L15.6983 6.44812L15.4 6.24431L15.0199 6.8111L15.401 7.40365L15.6225 7.22596V7.09801L15.8448 7.40577L15.7506 7.55255L15.8302 7.77056V7.92848ZM16.4446 3.60731L15.8302 2.9056V2.74767L15.7506 2.52966L15.8448 2.38288L15.6225 2.07512V2.20308L15.401 2.38076L15.0199 1.78822L15.4 1.22142L15.6983 1.42523L15.8753 1.16203L15.7825 1.21842L15.6432 1.03888L15.9458 0.764947L15.8179 0.639723L16.311 -3.05176e-05L16.3694 0.0451196L15.9163 0.632836L16.0534 0.767046L15.7435 1.0477L15.8004 1.12114L16.1239 0.92454L15.6162 1.67956L15.5535 1.64085L15.6447 1.47798L15.4198 1.32435L15.1081 1.78906L15.4187 2.27192L15.5488 2.1676V1.84707L16.2263 2.78508L15.8748 2.47267L15.8324 2.53874L15.9017 2.72843L15.904 2.74112V2.87779L16.5 3.5586L16.4446 3.60731Z" fill="#E8AA00"/>
<path fill-rule="evenodd" clip-rule="evenodd" d="M11.22 16.5646H12.9676V16.9291H13.3659V17.2208H13.8438V18.1687H13.3659V18.4604H12.9676V18.7521H11.2666L10.796 19.1238L10.3231 18.7521H8.74641V18.4604H8.34822V18.1687H7.94995V17.2208H8.34822V16.9291H8.74641V16.5646H10.3699L10.796 16.2296L11.22 16.5646Z" fill="#389F5D"/>
<path d="M12.9676 16.5646H13.2176V16.3146H12.9676V16.5646ZM11.22 16.5646L11.065 16.7607L11.1331 16.8146H11.22V16.5646ZM12.9676 16.9291H12.7176V17.1791H12.9676V16.9291ZM13.3659 16.9291H13.6159V16.6791H13.3659V16.9291ZM13.3659 17.2208H13.1159V17.4708H13.3659V17.2208ZM13.8438 17.2208H14.0938V16.9708H13.8438V17.2208ZM13.8438 18.1687V18.4187H14.0938V18.1687H13.8438ZM13.3659 18.1687V17.9187H13.1159V18.1687H13.3659ZM13.3659 18.4604V18.7104H13.6159V18.4604H13.3659ZM12.9676 18.4604V18.2104H12.7176V18.4604H12.9676ZM12.9676 18.7521V19.0021H13.2176V18.7521H12.9676ZM11.2666 18.7521V18.5021H11.1797L11.1116 18.5559L11.2666 18.7521ZM10.796 19.1238L10.6414 19.3204L10.7963 19.4421L10.9509 19.32L10.796 19.1238ZM10.3231 18.7521L10.4776 18.5555L10.4096 18.5021H10.3231V18.7521ZM8.74641 18.7521H8.49641V19.0021H8.74641V18.7521ZM8.74641 18.4604H8.99641V18.2104H8.74641V18.4604ZM8.34822 18.4604H8.09822V18.7104H8.34822V18.4604ZM8.34822 18.1687H8.59822V17.9187H8.34822V18.1687ZM7.94995 18.1687H7.69995V18.4187H7.94995V18.1687ZM7.94995 17.2208V16.9708H7.69995V17.2208H7.94995ZM8.34822 17.2208V17.4708H8.59822V17.2208H8.34822ZM8.34822 16.9291V16.6791H8.09822V16.9291H8.34822ZM8.74641 16.9291V17.1791H8.99641V16.9291H8.74641ZM8.74641 16.5646V16.3146H8.49641V16.5646H8.74641ZM10.3699 16.5646V16.8146H10.4565L10.5245 16.7611L10.3699 16.5646ZM10.796 16.2296L10.9509 16.0334L10.7963 15.9113L10.6414 16.0331L10.796 16.2296ZM12.9676 16.3146H11.22V16.8146H12.9676V16.3146ZM13.2176 16.9291V16.5646H12.7176V16.9291H13.2176ZM13.3659 16.6791H12.9676V17.1791H13.3659V16.6791ZM13.6159 17.2208V16.9291H13.1159V17.2208H13.6159ZM13.8438 16.9708H13.3659V17.4708H13.8438V16.9708ZM14.0938 18.1687V17.2208H13.5938V18.1687H14.0938ZM13.3659 18.4187H13.8438V17.9187H13.3659V18.4187ZM13.6159 18.4604V18.1687H13.1159V18.4604H13.6159ZM12.9676 18.7104H13.3659V18.2104H12.9676V18.7104ZM13.2176 18.7521V18.4604H12.7176V18.7521H13.2176ZM11.2666 19.0021H12.9676V18.5021H11.2666V19.0021ZM10.9509 19.32L11.4215 18.9482L11.1116 18.5559L10.641 18.9277L10.9509 19.32ZM10.1686 18.9486L10.6414 19.3204L10.9505 18.9273L10.4776 18.5555L10.1686 18.9486ZM8.74641 19.0021H10.3231V18.5021H8.74641V19.0021ZM8.49641 18.4604V18.7521H8.99641V18.4604H8.49641ZM8.34822 18.7104H8.74641V18.2104H8.34822V18.7104ZM8.09822 18.1687V18.4604H8.59822V18.1687H8.09822ZM7.94995 18.4187H8.34822V17.9187H7.94995V18.4187ZM7.69995 17.2208V18.1687H8.19995V17.2208H7.69995ZM8.34822 16.9708H7.94995V17.4708H8.34822V16.9708ZM8.09822 16.9291V17.2208H8.59822V16.9291H8.09822ZM8.74641 16.6791H8.34822V17.1791H8.74641V16.6791ZM8.49641 16.5646V16.9291H8.99641V16.5646H8.49641ZM10.3699 16.3146H8.74641V16.8146H10.3699V16.3146ZM10.5245 16.7611L10.9505 16.4261L10.6414 16.0331L10.2154 16.368L10.5245 16.7611ZM10.641 16.4258L11.065 16.7607L11.375 16.3684L10.9509 16.0334L10.641 16.4258Z" fill="#E8AA00"/>
<path fill-rule="evenodd" clip-rule="evenodd" d="M8.97949 17.4073V16.7631H9.82389L8.97949 17.4073ZM12.5318 17.4073V16.7631H11.6874L12.5318 17.4073ZM8.97949 18.5739V17.9298L9.82389 18.5739H8.97949ZM12.5318 17.9298V18.5739H11.6874L12.5318 17.9298Z" fill="#C51918"/>
<path fill-rule="evenodd" clip-rule="evenodd" d="M10.4758 16.8185L10.7673 16.4792L11.0551 16.8185H10.4758ZM10.4758 17.1355L10.7673 17.4748L11.0551 17.1355H10.4758ZM10.7673 17.9376L10.4758 18.2769H11.0551L10.7673 17.9376ZM10.4758 18.5938L10.7673 18.9331L11.0551 18.5938H10.4758Z" fill="#E8AA00"/>
<path fill-rule="evenodd" clip-rule="evenodd" d="M10.4818 16.7783V16.9242H10.3145V17.1242H10.4818V17.27H11.0657V17.1242H11.2331V16.9242H11.0657V16.7783H10.4818ZM11.0657 18.3825V18.2366H10.4818V18.3825H10.3145V18.5825H10.4818V18.7283H11.0657V18.5825H11.2331V18.3825H11.0657Z" fill="#AF0100"/>
<path fill-rule="evenodd" clip-rule="evenodd" d="M9.3606 17.5492L9.63804 17.2084L9.912 17.5492H9.3606ZM9.3606 17.8676L9.63804 18.2084L9.912 17.8676H9.3606ZM11.9478 17.2084L11.6704 17.5492H12.2218L11.9478 17.2084ZM11.6704 17.8676L11.9478 18.2084L12.2218 17.8676H11.6704Z" fill="#AF0100"/>
<path fill-rule="evenodd" clip-rule="evenodd" d="M9.3585 17.5075V17.6563H9.19922V17.8603H9.3585V18.009H9.91437V17.8603H10.0737V17.6563H9.91437V17.5075H9.3585ZM12.2241 17.6562V17.5075H11.6682V17.6562H11.5089V17.8602H11.6682V18.009H12.2241V17.8602H12.3834V17.6562H12.2241Z" fill="#E8AA00"/>
<mask id="mask3_243_12409" style="mask-type:luminance" maskUnits="userSpaceOnUse" x="8" y="19" width="7" height="4">
<path fill-rule="evenodd" clip-rule="evenodd" d="M9.99424 19.2509L8.00122 20.2498V21.9054L9.99424 22.9446H12.1529L14.1933 21.9054V20.2498L12.1529 19.2509H9.99424Z" fill="white"/>
</mask>
<g mask="url(#mask3_243_12409)">
<path d="M8.02979 21.0958H11.136V22.9187H8.02979V21.0958Z" fill="#E8AA00"/>
<rect x="7.71118" y="19.2729" width="3.42478" height="1.82292" fill="#F9E8E7"/>
<path d="M8.50757 20.3352L9.53865 19.7833V20.3352H8.50757Z" fill="#E8AA00"/>
<rect width="3.42478" height="1.82292" transform="matrix(-1 0 0 1 14.5608 19.2729)" fill="#E8AA00"/>
<path d="M13.5254 20.3352L12.4943 19.7833V20.3352H13.5254Z" fill="#F9E8E7"/>
<rect x="14.2422" y="22.9187" width="3.10619" height="1.82292" transform="rotate(180 14.2422 22.9187)" fill="#F9E8E7"/>
<path d="M13.4458 21.8564L12.4147 22.4083V21.8564H13.4458Z" fill="#E8AA00"/>
<path d="M8.50757 21.7412L9.53865 22.2932V21.7412H8.50757Z" fill="#FCFCFC"/>
</g>
<path fill-rule="evenodd" clip-rule="evenodd" d="M10.021 20.3667H10.5387L11.0564 20.2208L11.5741 20.3667H12.0918V21.7521H11.5741L11.0564 21.9708L10.5387 21.7521H10.021V20.3667Z" fill="#C51918"/>
<path fill-rule="evenodd" clip-rule="evenodd" d="M11.7732 19.5375H12.0544V19.8196H12.1697V20.0196H12.0544V20.1273H11.7732V19.5375ZM8.94824 20.4125H8.66699V21.0023H8.94824V20.8946H9.0635V20.6946H8.94824V20.4125ZM9.3465 20.4125H9.06525V21.0023H9.3465V20.4125ZM8.94824 21.1417H8.66699V21.7315H8.94824V21.6238H9.0635V21.4238H8.94824V21.1417ZM9.06525 21.1417H9.3465V21.7315H9.06525V21.1417ZM13.0475 20.4125H13.3288V20.6946H13.444V20.8946H13.3288V21.0023H13.0475V20.4125ZM13.727 20.4125H13.4458V21.0023H13.727V20.4125ZM13.3288 21.1417H13.0475V21.7315H13.3288V21.6238H13.444V21.4238H13.3288V21.1417ZM13.4458 21.1417H13.727V21.7315H13.4458V21.1417ZM12.4527 19.5375H12.1714V20.1273H12.4527V19.5375ZM10.1429 19.5375H9.86169V20.1273H10.1429V20.0196H10.2582V19.8196H10.1429V19.5375ZM10.2599 19.5375H10.5412V20.1273H10.2599V19.5375ZM11.7732 22.0167H12.0544V22.2988H12.1697V22.4988H12.0544V22.6065H11.7732V22.0167ZM12.4527 22.0167H12.1714V22.6065H12.4527V22.0167ZM10.1429 22.0167H9.86169V22.6065H10.1429V22.4988H10.2582V22.2988H10.1429V22.0167ZM10.2599 22.0167H10.5412V22.6065H10.2599V22.0167Z" fill="#C9343F"/>
<path fill-rule="evenodd" clip-rule="evenodd" d="M10.9033 20.6662H10.983V20.468H10.585V20.6946H10.2571V21.0195H10.562V20.9466H10.3367V20.7676H10.6072L11.0143 21.0807L10.6072 21.3938H10.3367V21.2148H10.562V21.1418H10.2571V21.4667H10.585V21.6934H10.983V21.4952H10.9033V21.6205H10.6647V21.4449L11.0787 21.1264L11.4927 21.4449V21.6205H11.254V21.4952H11.1744V21.6934H11.5723V21.4667H11.9003V21.1418H11.5953V21.2148H11.8206V21.3938H11.5501L11.143 21.0807L11.5501 20.7676H11.8206V20.9466H11.5953V21.0195H11.9003V20.6946H11.5723V20.468H11.1744V20.6662H11.254V20.5409H11.4927V20.7165L11.0787 21.035L10.6647 20.7165V20.5409H10.9033V20.6662Z" fill="white"/>
<path fill-rule="evenodd" clip-rule="evenodd" d="M11.5326 6.79999H10.13V10.8H11.5326V6.79999ZM12.4968 7.64612H13.3735V9.79996H12.4968V7.64612ZM8.37671 7.64614H9.25333V9.79999H8.37671V7.64614Z" fill="#E8AA00"/>
<path fill-rule="evenodd" clip-rule="evenodd" d="M10.1299 7.10767H9.25328V10.1846H10.1299V7.10767ZM8.37662 7.95382H7.5V9.41536H8.37662V7.95382ZM13.3734 7.9538H14.25V9.41533H13.3734V7.9538ZM12.4091 7.10767H11.5325V10.1846H12.4091V7.10767Z" fill="#389F5D"/>
<path fill-rule="evenodd" clip-rule="evenodd" d="M9.95456 7.4923C9.95456 7.61976 9.83681 7.72307 9.69157 7.72307C9.54632 7.72307 9.42858 7.61976 9.42858 7.4923C9.42858 7.36485 9.54632 7.26154 9.69157 7.26154C9.83681 7.26154 9.95456 7.36485 9.95456 7.4923ZM8.20127 8.26154C8.20127 8.38899 8.08352 8.4923 7.93828 8.4923C7.79304 8.4923 7.67529 8.38899 7.67529 8.26154C7.67529 8.13409 7.79304 8.03077 7.93828 8.03077C8.08352 8.03077 8.20127 8.13409 8.20127 8.26154ZM8.20127 9.10769C8.20127 9.23514 8.08352 9.33846 7.93828 9.33846C7.79304 9.33846 7.67529 9.23514 7.67529 9.10769C7.67529 8.98024 7.79304 8.87692 7.93828 8.87692C8.08352 8.87692 8.20127 8.98024 8.20127 9.10769ZM9.69157 10.0308C9.83681 10.0308 9.95456 9.92743 9.95456 9.79998C9.95456 9.67253 9.83681 9.56921 9.69157 9.56921C9.54632 9.56921 9.42858 9.67253 9.42858 9.79998C9.42858 9.92743 9.54632 10.0308 9.69157 10.0308ZM13.8116 8.4923C13.9569 8.4923 14.0746 8.38898 14.0746 8.26153C14.0746 8.13408 13.9569 8.03076 13.8116 8.03076C13.6664 8.03076 13.5487 8.13408 13.5487 8.26153C13.5487 8.38898 13.6664 8.4923 13.8116 8.4923ZM14.0746 9.10766C14.0746 9.23511 13.9569 9.33843 13.8116 9.33843C13.6664 9.33843 13.5487 9.23511 13.5487 9.10766C13.5487 8.98021 13.6664 8.87689 13.8116 8.87689C13.9569 8.87689 14.0746 8.98021 14.0746 9.10766ZM11.9708 10.0308C12.116 10.0308 12.2337 9.92743 12.2337 9.79998C12.2337 9.67253 12.116 9.56921 11.9708 9.56921C11.8255 9.56921 11.7078 9.67253 11.7078 9.79998C11.7078 9.92743 11.8255 10.0308 11.9708 10.0308ZM12.2337 7.4923C12.2337 7.61976 12.116 7.72307 11.9708 7.72307C11.8255 7.72307 11.7078 7.61976 11.7078 7.4923C11.7078 7.36485 11.8255 7.26154 11.9708 7.26154C12.116 7.26154 12.2337 7.36485 12.2337 7.4923Z" fill="#E1E5E8"/>
<path fill-rule="evenodd" clip-rule="evenodd" d="M11.0942 7.18463C11.0942 7.31208 10.9765 7.4154 10.8313 7.4154C10.686 7.4154 10.5683 7.31208 10.5683 7.18463C10.5683 7.05718 10.686 6.95386 10.8313 6.95386C10.9765 6.95386 11.0942 7.05718 11.0942 7.18463ZM9.07798 8.03078C9.07798 8.15823 8.96023 8.26155 8.81499 8.26155C8.66975 8.26155 8.552 8.15823 8.552 8.03078C8.552 7.90333 8.66975 7.80001 8.81499 7.80001C8.96023 7.80001 9.07798 7.90333 9.07798 8.03078ZM10.8313 10.7231C10.9765 10.7231 11.0942 10.6198 11.0942 10.4923C11.0942 10.3649 10.9765 10.2615 10.8313 10.2615C10.686 10.2615 10.5683 10.3649 10.5683 10.4923C10.5683 10.6198 10.686 10.7231 10.8313 10.7231ZM13.1981 8.03076C13.1981 8.15821 13.0804 8.26153 12.9351 8.26153C12.7899 8.26153 12.6721 8.15821 12.6721 8.03076C12.6721 7.90331 12.7899 7.79999 12.9351 7.79999C13.0804 7.79999 13.1981 7.90331 13.1981 8.03076ZM8.81499 9.64617C8.96023 9.64617 9.07798 9.54285 9.07798 9.4154C9.07798 9.28795 8.96023 9.18463 8.81499 9.18463C8.66975 9.18463 8.552 9.28795 8.552 9.4154C8.552 9.54285 8.66975 9.64617 8.81499 9.64617ZM13.1981 9.4154C13.1981 9.54285 13.0804 9.64617 12.9351 9.64617C12.7899 9.64617 12.6721 9.54285 12.6721 9.4154C12.6721 9.28795 12.7899 9.18463 12.9351 9.18463C13.0804 9.18463 13.1981 9.28795 13.1981 9.4154Z" fill="#C51918"/>
<path fill-rule="evenodd" clip-rule="evenodd" d="M9.30733 8.39144L10.1607 7.70636H11.5464L12.5188 8.49232H13.8116V8.80001H12.5539V8.81607L11.5464 9.72694H10.1607L9.30733 8.90485V8.80001H7.85059V8.49232H9.30733V8.39144Z" fill="#C51918"/>
<path fill-rule="evenodd" clip-rule="evenodd" d="M10.8669 8.25956L10.8877 8.27666L11.3019 8.6498L10.8669 9.01613L10.4318 8.6498L10.846 8.27666L10.8669 8.25956ZM11.3598 7.81382L11.4157 7.76343L11.3215 7.68292L10.8669 8.09251L10.4122 7.68292L10.318 7.76343L10.3739 7.81382L10.1878 7.98091L10.0592 7.8911L9.70435 8.19719L10.2452 8.65257L9.70781 9.13664L10.0353 9.44364H10.1742L10.4515 9.59875L10.8669 9.25694L11.2822 9.59875L11.5596 9.44364H11.6984L12.0259 9.13664L11.4886 8.65257L12.0294 8.19719L11.6745 7.8911L11.5459 7.98091L11.3598 7.81382ZM10.963 9.17785L11.2977 9.4533L11.5212 9.32828H11.6414L11.8441 9.13825L11.3937 8.73248L10.9619 9.09611L11.0115 9.13791L10.963 9.17785ZM11.1041 8.29617L11.0986 8.30131L11.3968 8.56994L11.8407 8.19622L11.6653 8.04499L11.5349 8.1361L11.2878 7.91431L10.9639 8.17997L10.9793 8.19387L11.1041 8.29617ZM10.8204 9.13698L10.436 9.4533L10.2125 9.32828H10.0923L9.88957 9.13825L10.34 8.73248L10.8204 9.13698ZM9.89307 8.19622L10.3369 8.56994L10.7698 8.17997L10.4459 7.91431L10.1989 8.1361L10.0684 8.04499L9.89307 8.19622Z" fill="#E8AA00"/>
<path fill-rule="evenodd" clip-rule="evenodd" d="M8.0044 23.4417C7.76925 23.1764 7.61054 22.9973 7.56874 23C7.43749 23.0086 7.3144 24.2438 9.02038 25.1836C9.02038 25.1836 9.27219 25.308 9.41886 25.1836C9.56552 25.0591 9.41886 24.876 9.41886 24.876C8.8674 24.4153 8.35226 23.8341 8.0044 23.4417ZM13.7456 23.4417C13.9807 23.1764 14.1395 22.9973 14.1813 23C14.3125 23.0086 14.4356 24.2438 12.7296 25.1836C12.7296 25.1836 12.4778 25.308 12.3311 25.1836C12.1845 25.0591 12.3311 24.876 12.3311 24.876C12.8826 24.4153 13.3977 23.8341 13.7456 23.4417L13.7456 23.4417L13.7456 23.4417ZM13.6208 25.1037C13.0602 25.2509 12.411 25.2818 12.1627 25.1866C12.0835 25.1562 11.9995 25.1323 11.9111 25.1145C11.6641 25.0647 11.4234 25.0643 11.1377 25.0921C11.1134 25.0944 11.0533 25.1007 11.0323 25.1029L11.025 25.1037C10.9981 25.1064 10.9825 25.1076 10.9796 25.1076C10.9628 25.1076 10.9445 25.1098 10.9243 25.1139C10.9042 25.1098 10.8858 25.1076 10.8691 25.1076C10.8661 25.1076 10.8506 25.1064 10.8237 25.1037C10.8233 25.1036 10.8206 25.1034 10.8163 25.1029C10.7953 25.1007 10.7353 25.0944 10.7109 25.0921C10.4253 25.0643 10.1845 25.0647 9.93756 25.1145C9.84922 25.1323 9.76514 25.1562 9.68595 25.1866C9.43769 25.2818 8.78843 25.2509 8.22784 25.1037C8.22784 25.1037 9.24796 25.4679 9.85382 25.3065C9.91257 25.284 9.97453 25.2664 10.0397 25.2532C10.2122 25.2184 10.3889 25.2153 10.6014 25.233C10.512 25.27 10.4081 25.3123 10.2872 25.3559V25.4C10.5258 25.3139 10.8054 25.2732 10.9243 25.2606C11.0433 25.2732 11.3229 25.3139 11.5614 25.4V25.3559C11.4406 25.3123 11.3367 25.27 11.2473 25.233C11.4598 25.2153 11.6365 25.2184 11.8089 25.2532C11.8741 25.2664 11.9361 25.284 11.9949 25.3065C12.6007 25.4679 13.6208 25.1037 13.6208 25.1037Z" fill="#E8AA00"/>
<path fill-rule="evenodd" clip-rule="evenodd" d="M9.48459 11.9774L8.07617 13.0806V14.1314L9.30746 15.2312H11.8216L13.2078 14.0577V13.1631L11.8216 11.9774H9.48459Z" fill="#389F5D"/>
<path fill-rule="evenodd" clip-rule="evenodd" d="M9.96922 12.0941H9.65063V12.3129H9.96922V12.0941ZM9.96922 14.9541H9.65063V15.1729H9.96922V14.9541ZM10.4471 14.9542H10.7656V15.1729H10.4471V14.9542ZM10.7656 12.0941H10.4471V12.3129H10.7656V12.0941ZM11.2436 14.9542H11.5622V15.1729H11.2436V14.9542ZM11.5622 12.0941H11.2436V12.3129H11.5622V12.0941Z" fill="#C51918"/>
<path fill-rule="evenodd" clip-rule="evenodd" d="M10.3731 12.0375H10.0488V12.2562H10.3731V12.0375ZM10.3731 14.9541H10.0488V15.1729H10.3731V14.9541ZM10.8595 12.0375H11.1838V12.2562H10.8595V12.0375ZM11.1838 14.9542H10.8595V15.1729H11.1838V14.9542Z" fill="#E8AA00"/>
<path fill-rule="evenodd" clip-rule="evenodd" d="M8.52814 11.8419H12.7807V12.426H13.3896V14.8409H12.7807V15.34H8.52814V14.8409H7.86694V12.426H8.52814V11.8419ZM8.76707 12.6448H8.10587V14.6221H8.76707V15.1213H12.5417V14.6221H13.1506V12.6448H12.5417V12.0607H8.76707V12.6448Z" fill="#750100"/>
<path fill-rule="evenodd" clip-rule="evenodd" d="M10.2081 11.6H9.80986V11.9646H10.2081V11.6ZM10.8452 11.6H10.447V11.9646H10.8452V11.6ZM11.0842 11.6H11.4824V11.9646H11.0842V11.6ZM10.2081 15.2458H9.80986V15.6104H10.2081V15.2458ZM10.447 15.2458H10.8452V15.6104H10.447V15.2458ZM11.4824 15.2458H11.0842V15.6104H11.4824V15.2458ZM7.49414 14.4384V14.0844H7.9043V14.4384H7.49414ZM7.49414 13.5011V13.8551H7.9043V13.5011H7.49414ZM7.49414 13.2718V12.9178H7.9043V13.2718H7.49414ZM13.2287 14.0844V14.4384H13.6388V14.0844H13.2287ZM13.2287 13.8551V13.5011H13.6388V13.8551H13.2287ZM13.2287 12.9177V13.2717H13.6388V12.9177H13.2287Z" fill="#389F5D"/>
<path fill-rule="evenodd" clip-rule="evenodd" d="M9.50081 12.2846L8.81396 12.8156V14.5339L9.38398 14.8924H11.8552L12.4244 14.5339V12.8156L11.782 12.2846H9.50081Z" fill="#C51918"/>
<path fill-rule="evenodd" clip-rule="evenodd" d="M10.6537 12.9968L9.82495 13.6263H10.6537V12.9968Z" fill="#E1E5E8"/>
<path d="M10.6537 14.1973L9.82495 13.5678H10.6537V14.1973Z" fill="#E8AA00"/>
<path fill-rule="evenodd" clip-rule="evenodd" d="M10.5816 12.9968L11.4104 13.6263H10.5816V12.9968Z" fill="#E8AA00"/>
<path fill-rule="evenodd" clip-rule="evenodd" d="M10.6184 13.7962C10.7571 13.7962 10.8695 13.6963 10.8695 13.5731C10.8695 13.4499 10.7571 13.35 10.6184 13.35C10.4798 13.35 10.3674 13.4499 10.3674 13.5731C10.3674 13.6963 10.4798 13.7962 10.6184 13.7962Z" fill="#29AE66"/>
<path d="M10.5816 14.1973L11.4104 13.5678H10.5816V14.1973Z" fill="#E1E5E8"/>
<path fill-rule="evenodd" clip-rule="evenodd" d="M8.85402 13.35H8.13721V13.554H8.85402V13.35ZM8.85402 13.7219H8.13721V13.9259H8.85402V13.7219ZM12.4381 13.35H13.1549V13.554H12.4381V13.35ZM13.1549 13.7219H12.4381V13.9259H13.1549V13.7219Z" fill="#C51918"/>
<path fill-rule="evenodd" clip-rule="evenodd" d="M8.77438 13.1312H8.13721V13.3544H8.77438V13.1312ZM8.77438 13.5031H8.13721V13.7262H8.77438V13.5031ZM8.13721 13.875H8.77438V14.0981H8.13721V13.875ZM13.0752 13.1312H12.4381V13.3544H13.0752V13.1312ZM12.4381 13.5031H13.0752V13.7262H12.4381V13.5031ZM13.0752 13.875H12.4381V14.0981H13.0752V13.875Z" fill="#E8AA00"/>
<path fill-rule="evenodd" clip-rule="evenodd" d="M14.233 3.59035L14.2306 3.99553H10.9018L10.8994 5.83551H9.85561C9.67341 5.83551 9.17384 5.52452 9.17384 5.52452H8.32632L7.93506 5.16921V4.81221L7.51514 4.369L7.51756 3.96383H10.8464L10.8487 2.12384H11.8925C12.0747 2.12384 12.5743 2.43483 12.5743 2.43483H13.4218L13.8131 2.79014V3.14715L14.233 3.59035Z" fill="#E8AA00"/>
<path fill-rule="evenodd" clip-rule="evenodd" d="M7.51506 3.59035L7.51748 3.99553H10.8463L10.8487 5.83551H11.8924C12.0746 5.83551 12.5742 5.52452 12.5742 5.52452H13.4217L13.813 5.16921V4.81221L14.2329 4.369L14.2305 3.96383H10.9017L10.8993 2.12384H9.85553C9.67333 2.12384 9.17377 2.43483 9.17377 2.43483H8.32625L7.93499 2.79014V3.14715L7.51506 3.59035Z" fill="#E1E5E8"/>
<path fill-rule="evenodd" clip-rule="evenodd" d="M9.75228 2.68536L9.71583 2.52887L10.4339 2.3821C10.5201 2.3451 10.6697 2.2397 10.8757 2.06842L10.9722 2.16499L10.9888 2.14844C11.1948 2.31971 11.3444 2.42512 11.4306 2.46212L12.1487 2.60889L12.1122 2.76538L11.7141 2.69227L11.7521 2.72254C11.7248 2.73711 11.695 2.75835 11.6631 2.78614L11.495 2.76413L11.5106 2.71361L11.4684 2.7075C11.4375 2.75935 11.4021 2.83353 11.3643 2.92872L11.1962 2.88471L11.2643 2.59483L10.8843 2.27801L10.618 2.49997C10.6512 2.52666 10.6842 2.55729 10.7172 2.59195C10.689 2.6015 10.662 2.60993 10.6362 2.61724L10.6249 2.61965L10.6683 2.80469L10.5002 2.8487C10.4782 2.79339 10.4571 2.74517 10.4372 2.70431L10.4233 2.70612C10.3914 2.67834 10.3617 2.65709 10.3343 2.64252L10.3819 2.6047C10.3741 2.59283 10.3666 2.58255 10.3595 2.57387L9.75228 2.68536ZM9.78178 3.25837L9.87765 3.1244L9.38176 2.82886L9.4369 2.76032L9.29558 2.66563L9.23475 2.74124L9.03791 2.62393L8.94205 2.75789L9.13083 2.8704L9.09194 2.91874L9.23327 3.01343L9.27784 2.95802L9.78178 3.25837ZM9.1682 3.41834L9.26406 3.28438L8.76813 2.9888L8.82325 2.92029L8.68192 2.8256L8.62111 2.90119L8.42433 2.7839L8.32846 2.91786L8.5172 3.03035L8.47829 3.07872L8.61961 3.17341L8.66421 3.11797L9.1682 3.41834ZM8.90521 3.89838L9.00108 3.76442L8.50511 3.46883L8.56026 3.40027L8.41894 3.30558L8.3581 3.38121L8.16134 3.26394L8.06548 3.39791L8.25418 3.51037L8.2153 3.5587L8.35663 3.65339L8.40119 3.59799L8.90521 3.89838ZM8.91339 4.28239L8.81752 4.14843L8.31358 4.44877L8.26901 4.39338L8.12769 4.48807L8.16656 4.53639L7.97778 4.6489L8.07365 4.78286L8.27048 4.66556L8.33132 4.74118L8.47264 4.64649L8.41749 4.57794L8.91339 4.28239ZM9.08051 4.62842L9.17638 4.76239L8.68046 5.05795L8.73563 5.12653L8.59431 5.22122L8.53344 5.14557L8.33664 5.26286L8.24078 5.1289L8.42953 5.01641L8.39067 4.96811L8.53199 4.87342L8.57654 4.92879L9.08051 4.62842ZM9.69417 4.7884L9.79003 4.92236L9.29411 5.21792L9.34928 5.2865L9.20796 5.38119L9.1471 5.30554L8.9503 5.42283L8.85443 5.28887L9.04318 5.17638L9.00433 5.12808L9.14565 5.03339L9.19019 5.08876L9.69417 4.7884ZM10.6296 5.55308C10.6014 5.54353 10.5744 5.5351 10.5486 5.52779L10.5152 5.5207L10.5806 5.24207L10.4125 5.19806C10.3588 5.33342 10.3099 5.42631 10.2718 5.47289L9.66459 5.3614L9.62814 5.51789L10.3203 5.65937L10.3201 5.65998L10.4202 5.71907L10.4333 5.71177C10.5206 5.76585 10.6397 5.85502 10.788 5.97834L10.8446 5.92175L10.9012 5.97834C11.1072 5.80707 11.2568 5.70166 11.343 5.66467L11.3663 5.65991C11.3965 5.68288 11.4269 5.70258 11.4575 5.71907L11.5576 5.65998L11.5475 5.62946L11.5587 5.62059L12.0611 5.51789L12.0246 5.3614L11.4174 5.47289C11.3793 5.42631 11.3304 5.33342 11.2767 5.19806L11.1086 5.24207L11.1767 5.53195L10.8446 5.80879L10.5879 5.59474C10.6018 5.58156 10.6157 5.56768 10.6296 5.55308ZM12.7758 4.28241L12.8717 4.14844L13.3756 4.44879L13.4202 4.39338L13.5615 4.48807L13.5226 4.53641L13.7114 4.64892L13.6156 4.78288L13.4187 4.66557L13.3579 4.74118L13.2166 4.64649L13.2717 4.57795L12.7758 4.28241ZM12.5128 4.76239L12.6087 4.62842L13.1127 4.92879L13.1572 4.87342L13.2985 4.96811L13.2597 5.01641L13.4484 5.1289L13.3526 5.26286L13.1558 5.14557L13.0949 5.22122L12.9536 5.12653L13.0088 5.05795L12.5128 4.76239ZM11.8992 4.92236L11.995 4.7884L12.499 5.08876L12.5436 5.03339L12.6849 5.12808L12.646 5.17638L12.8348 5.28887L12.7389 5.42283L12.5421 5.30554L12.4812 5.38119L12.3399 5.2865L12.3951 5.21792L11.8992 4.92236ZM12.8634 3.84438L12.9593 3.97834L13.4633 3.67797L13.5079 3.7334L13.6492 3.63871L13.6103 3.59035L13.799 3.47786L13.7032 3.3439L13.5064 3.46118L13.4456 3.3856L13.3042 3.48029L13.3594 3.5488L12.8634 3.84438ZM12.6004 3.3644L12.6963 3.49836L13.2003 3.19801L13.2448 3.25342L13.3862 3.15873L13.3473 3.11039L13.536 2.99788L13.4402 2.86392L13.2433 2.98123L13.1825 2.90562L13.0412 3.00031L13.0963 3.06885L12.6004 3.3644ZM11.9869 3.20442L12.0827 3.33838L12.5867 3.03802L12.6312 3.09339L12.7726 2.9987L12.7337 2.9504L12.9225 2.83791L12.8266 2.70395L12.6298 2.82124L12.5689 2.74559L12.4276 2.84028L12.4828 2.90886L11.9869 3.20442Z" fill="#C51918"/>
<path fill-rule="evenodd" clip-rule="evenodd" d="M9.98346 3.15295L10.9763 2.68494V3.96492H13.4309L12.846 4.33935V4.82923H11.9203L10.9275 5.29724V4.01726H8.4729L9.05777 3.64283V3.15295H9.98346Z" fill="#C51918"/>
<path fill-rule="evenodd" clip-rule="evenodd" d="M11.9201 3.15295L10.9272 2.68494V3.96492H8.47266L9.05753 4.33935V4.82923H9.98322L10.9761 5.29724V4.01726H13.4307L12.8458 3.64283V3.15295H11.9201Z" fill="#29AE66"/>
<path fill-rule="evenodd" clip-rule="evenodd" d="M9.50122 3.48472L9.66323 3.20093L10.0754 3.39687L10.1889 3.2467L10.4775 3.42845L10.3887 3.54586L11.6086 4.12582L11.6838 4.02637L11.9724 4.20811L11.922 4.27481L12.0537 4.33744L11.8917 4.62123L11.7213 4.54022L11.5829 4.7232L11.2943 4.54145L11.4079 4.39123L10.1881 3.81127L10.088 3.94354L9.79944 3.76179L9.87468 3.66228L9.50122 3.48472Z" fill="#29AE66"/>
<path fill-rule="evenodd" clip-rule="evenodd" d="M12.1006 3.40676L11.9168 3.1337L11.521 3.35472L11.396 3.21196L11.1223 3.41115L11.2201 3.52277L10.0487 4.17695L9.96588 4.08238L9.69224 4.28158L9.7478 4.34501L9.62127 4.41567L9.80516 4.68873L9.96883 4.59732L10.1212 4.77126L10.3948 4.57206L10.2697 4.42927L11.4411 3.77509L11.5513 3.90084L11.8249 3.70164L11.742 3.60703L12.1006 3.40676Z" fill="#C51918"/>
</g>
<path fill-rule="evenodd" clip-rule="evenodd" d="M24.4575 4C24.4575 4 27.079 9.5216 24.75 11.8665C22.4209 14.2114 16.5 13.7593 16.5 13.7593C16.5 13.7593 24.101 16.811 27.4127 12.6091C30.7244 8.40713 24.4575 4 24.4575 4Z" fill="#F7FCFF"/>
<path fill-rule="evenodd" clip-rule="evenodd" d="M19.6998 7.24848L19.0062 7.68245L19.2509 6.95522L18.5775 6.4962L19.4223 6.48072L19.6998 5.76306L19.9772 6.48072L20.8221 6.4962L20.1487 6.95522L20.3934 7.68245L19.6998 7.24848ZM19.8339 9.25379L19.1403 9.68776L19.385 8.96053L18.7116 8.50151L19.5565 8.48603L19.8339 7.76837L20.1114 8.48603L20.9562 8.50151L20.2829 8.96053L20.5276 9.68776L19.8339 9.25379ZM17.0317 9.84267L17.7253 9.40869L18.4189 9.84267L18.1742 9.11544L18.8476 8.65642L18.0028 8.64094L17.7253 7.92328L17.4479 8.64094L16.603 8.65642L17.2764 9.11544L17.0317 9.84267ZM19.8339 11.3573L19.1403 11.7913L19.385 11.064L18.7116 10.605L19.5565 10.5895L19.8339 9.87189L20.1114 10.5895L20.9562 10.605L20.2829 11.064L20.5276 11.7913L19.8339 11.3573ZM21.4326 9.07491L22.1262 8.64093L22.8199 9.07491L22.5752 8.34768L23.2485 7.88866L22.4037 7.87318L22.1262 7.15552L21.8488 7.87318L21.0039 7.88866L21.6773 8.34768L21.4326 9.07491Z" fill="#F7FCFF"/>
</g>
</g>
</g>
</g>
<defs>
<filter id="filter0_dd_243_12409" x="0" y="0" width="42" height="30" filterUnits="userSpaceOnUse" color-interpolation-filters="sRGB">
<feFlood flood-opacity="0" result="BackgroundImageFix"/>
<feColorMatrix in="SourceAlpha" type="matrix" values="0 0 0 0 0 0 0 0 0 0 0 0 0 0 0 0 0 0 127 0" result="hardAlpha"/>
<feOffset dy="1"/>
<feGaussianBlur stdDeviation="1"/>
<feColorMatrix type="matrix" values="0 0 0 0 0.0627451 0 0 0 0 0.0941176 0 0 0 0 0.156863 0 0 0 0.06 0"/>
<feBlend mode="normal" in2="BackgroundImageFix" result="effect1_dropShadow_243_12409"/>
<feColorMatrix in="SourceAlpha" type="matrix" values="0 0 0 0 0 0 0 0 0 0 0 0 0 0 0 0 0 0 127 0" result="hardAlpha"/>
<feOffset dy="1"/>
<feGaussianBlur stdDeviation="1.5"/>
<feColorMatrix type="matrix" values="0 0 0 0 0.0627451 0 0 0 0 0.0941176 0 0 0 0 0.156863 0 0 0 0.1 0"/>
<feBlend mode="normal" in2="effect1_dropShadow_243_12409" result="effect2_dropShadow_243_12409"/>
<feBlend mode="normal" in="SourceGraphic" in2="effect2_dropShadow_243_12409" result="shape"/>
</filter>
<clipPath id="clip0_243_12409">
<rect x="3" y="2" width="36" height="24" rx="2" fill="white"/>
</clipPath>
</defs>
</svg>
